<svg id="Group_450" data-name="Group 450" xmlns="http://www.w3.org/2000/svg" width="27" height="27" viewBox="0 0 27 27">
  <path id="Path_21478" data-name="Path 21478" d="M1169.5,0A13.5,13.5,0,1,0,1183,13.5,13.5,13.5,0,0,0,1169.5,0Zm0,24.891A11.391,11.391,0,1,1,1180.891,13.5,11.39,11.39,0,0,1,1169.5,24.891Z" transform="translate(-1156)" fill="#fff"/>
  <path id="Path_21479" data-name="Path 21479" d="M1357.8,132.588h-2.347v-1.714c0-.527.543-.649.8-.649h1.519v-2.315l-1.74-.011a2.661,2.661,0,0,0-2.911,2.832v1.851H1351.4v2.389h1.719v6.434h2.336v-6.434h1.988Z" transform="translate(-1341.096 -121.155)" fill="#fff"/>
</svg>
