<svg xmlns="http://www.w3.org/2000/svg" width="196.419" height="39.891" viewBox="0 0 196.419 39.891">
  <g id="Group_3258" data-name="Group 3258" transform="translate(-47.937 -382.912)">
    <g id="PORTADOWN" transform="translate(47.937 382.912)">
      <g id="Group_3257" data-name="Group 3257">
        <path id="Path_22911" data-name="Path 22911" d="M61.746,384.673a7.139,7.139,0,0,1,3.136,2.616,7.845,7.845,0,0,1,0,8.012,7.011,7.011,0,0,1-3.136,2.616,11.721,11.721,0,0,1-4.8.907H52.753v5.737H47.937v-20.81h9.008A11.565,11.565,0,0,1,61.746,384.673Zm-1.769,9.29a3.26,3.26,0,0,0,1.13-2.66,3.3,3.3,0,0,0-1.13-2.69,5.057,5.057,0,0,0-3.3-.936H52.753V394.9h3.924A5.059,5.059,0,0,0,59.977,393.963Z" transform="translate(-47.937 -383.395)" fill="#fff"/>
        <path id="Path_22912" data-name="Path 22912" d="M97.441,403.038a10.37,10.37,0,0,1-4.073-3.849,11.073,11.073,0,0,1,0-11.03,10.374,10.374,0,0,1,4.073-3.85,12.879,12.879,0,0,1,11.668,0,10.613,10.613,0,0,1,0,18.729,12.878,12.878,0,0,1-11.668,0Zm9.171-3.553a6.08,6.08,0,0,0,2.334-2.363,7.443,7.443,0,0,0,0-6.9,6.078,6.078,0,0,0-2.334-2.363,6.966,6.966,0,0,0-6.659,0,6.072,6.072,0,0,0-2.334,2.363,7.443,7.443,0,0,0,0,6.9,6.074,6.074,0,0,0,2.334,2.363,6.966,6.966,0,0,0,6.659,0Z" transform="translate(-73.227 -382.912)" fill="#fff"/>
        <path id="Path_22913" data-name="Path 22913" d="M162.116,404.561l-4.013-5.8h-4.43v5.8h-4.816v-20.81h9.008a11.568,11.568,0,0,1,4.8.922,6.885,6.885,0,0,1,4.236,6.63,6.778,6.778,0,0,1-4.281,6.57l4.667,6.689ZM160.9,388.612a5.058,5.058,0,0,0-3.3-.936h-3.925v7.254H157.6a5,5,0,0,0,3.3-.952,3.751,3.751,0,0,0,0-5.366Z" transform="translate(-105.996 -383.395)" fill="#fff"/>
        <path id="Path_22914" data-name="Path 22914" d="M197.535,387.676h-6.659v-3.925h18.135v3.925h-6.659v16.886h-4.816Z" transform="translate(-130.169 -383.395)" fill="#fff"/>
        <path id="Path_22915" data-name="Path 22915" d="M283.436,383.751h9.453a13.288,13.288,0,0,1,5.99,1.293,9.689,9.689,0,0,1,4.043,3.642,11.1,11.1,0,0,1,0,10.94,9.682,9.682,0,0,1-4.043,3.642,13.282,13.282,0,0,1-5.99,1.293h-9.453Zm9.216,16.857a6.991,6.991,0,0,0,4.98-1.74,6.9,6.9,0,0,0,0-9.424,6.991,6.991,0,0,0-4.98-1.74h-4.4v12.9Z" transform="translate(-183.419 -383.395)" fill="#fff"/>
        <path id="Path_22916" data-name="Path 22916" d="M340.519,403.038a10.366,10.366,0,0,1-4.073-3.849,11.07,11.07,0,0,1,0-11.03,10.37,10.37,0,0,1,4.073-3.85,12.88,12.88,0,0,1,11.669,0,10.614,10.614,0,0,1,0,18.729,12.879,12.879,0,0,1-11.669,0Zm9.171-3.553a6.08,6.08,0,0,0,2.334-2.363,7.443,7.443,0,0,0,0-6.9,6.078,6.078,0,0,0-2.334-2.363,6.966,6.966,0,0,0-6.659,0,6.074,6.074,0,0,0-2.334,2.363,7.442,7.442,0,0,0,0,6.9,6.077,6.077,0,0,0,2.334,2.363,6.966,6.966,0,0,0,6.659,0Z" transform="translate(-213.069 -382.912)" fill="#fff"/>
        <path id="Path_22917" data-name="Path 22917" d="M418.321,383.751l-6.808,20.81H406.34l-4.578-14.091-4.727,14.091h-5.143l-6.838-20.81h4.994l4.7,14.627,4.9-14.627h4.459l4.757,14.746,4.845-14.746Z" transform="translate(-241.88 -383.395)" fill="#fff"/>
        <path id="Path_22918" data-name="Path 22918" d="M484.57,383.751v20.81h-3.954L470.24,391.927v12.635h-4.757v-20.81h3.984l10.345,12.635V383.751Z" transform="translate(-288.15 -383.395)" fill="#fff"/>
      </g>
    </g>
    <path id="Path_22919" data-name="Path 22919" d="M54.9,460.865a2.169,2.169,0,0,1,.474,1.447,2.037,2.037,0,0,1-.84,1.751,4.192,4.192,0,0,1-2.484.613h-4.07v-8.848h3.817a3.839,3.839,0,0,1,2.294.594A1.958,1.958,0,0,1,54.9,458.1a2.111,2.111,0,0,1-.36,1.245,2.165,2.165,0,0,1-.993.765A2.345,2.345,0,0,1,54.9,460.865ZM48.912,456.6v3.21h2.819a2.843,2.843,0,0,0,1.655-.411,1.518,1.518,0,0,0,0-2.389,2.846,2.846,0,0,0-1.655-.411Zm4.917,6.9a1.412,1.412,0,0,0,.607-1.264q0-1.656-2.4-1.656H48.912V463.9h3.122A3.252,3.252,0,0,0,53.829,463.5Z" transform="translate(-0.023 -41.948)" fill="#fff"/>
    <path id="Path_22920" data-name="Path 22920" d="M127.23,462.312H122.3l-1.061,2.364h-.973l4.045-8.848h.922l4.045,8.848h-.986Zm-.341-.759-2.124-4.752-2.124,4.752Z" transform="translate(-41.61 -41.948)" fill="#fff"/>
    <path id="Path_22921" data-name="Path 22921" d="M202.879,456.637a3.049,3.049,0,0,1,0,4.443,4.017,4.017,0,0,1-2.655.8h-2.376v2.794h-.936v-8.848h3.312A4,4,0,0,1,202.879,456.637Zm-.67,3.849a1.99,1.99,0,0,0,.7-1.624,2.02,2.02,0,0,0-.7-1.65,3.08,3.08,0,0,0-2.01-.575h-2.351v4.424H200.2A3.077,3.077,0,0,0,202.208,460.486Z" transform="translate(-85.705 -41.948)" fill="#fff"/>
    <path id="Path_22922" data-name="Path 22922" d="M273.946,456.637h-3.109v-.809h7.155v.809h-3.11v8.039h-.936Z" transform="translate(-128.234 -41.948)" fill="#fff"/>
    <path id="Path_22923" data-name="Path 22923" d="M352.351,455.828h.936v8.848h-.936Z" transform="translate(-175.129 -41.948)" fill="#fff"/>
    <path id="Path_22924" data-name="Path 22924" d="M421.289,464.333a3.465,3.465,0,0,1-1.4-.834l.367-.72a3.508,3.508,0,0,0,1.277.777,4.658,4.658,0,0,0,1.643.3,3,3,0,0,0,1.783-.436,1.345,1.345,0,0,0,.594-1.131,1.131,1.131,0,0,0-.322-.847,2.185,2.185,0,0,0-.79-.487,12.733,12.733,0,0,0-1.3-.373,13.59,13.59,0,0,1-1.593-.487,2.606,2.606,0,0,1-1.018-.714,1.9,1.9,0,0,1-.423-1.3,2.206,2.206,0,0,1,.354-1.22,2.423,2.423,0,0,1,1.087-.878,4.448,4.448,0,0,1,1.82-.329,5.353,5.353,0,0,1,1.485.208,4.27,4.27,0,0,1,1.258.575l-.316.746a4.361,4.361,0,0,0-1.188-.55,4.449,4.449,0,0,0-1.239-.183,2.859,2.859,0,0,0-1.751.448,1.393,1.393,0,0,0-.588,1.157,1.153,1.153,0,0,0,.322.853,2.108,2.108,0,0,0,.809.493q.487.171,1.308.373a13.211,13.211,0,0,1,1.574.474,2.58,2.58,0,0,1,1.018.708,1.873,1.873,0,0,1,.417,1.283,2.176,2.176,0,0,1-.36,1.22,2.418,2.418,0,0,1-1.106.872,4.614,4.614,0,0,1-1.833.322A5.671,5.671,0,0,1,421.289,464.333Z" transform="translate(-213.985 -41.846)" fill="#fff"/>
    <path id="Path_22925" data-name="Path 22925" d="M496.524,456.637h-3.11v-.809h7.155v.809h-3.11v8.039h-.936Z" transform="translate(-256.282 -41.948)" fill="#fff"/>
    <path id="Path_22926" data-name="Path 22926" d="M249.914,404.562l-9.305-20.81h-4.757l-9.275,20.81,10.517-2.973v-6.48h-3.717v-2.3h3.717v-4.263h2.3v4.263h3.716v2.3H239.4v6.48Z" transform="translate(-102.771 -0.483)" fill="#fff"/>
  </g>
</svg>
