<svg xmlns="http://www.w3.org/2000/svg" width="15.856" height="12.911" viewBox="0 0 15.856 12.911">
  <path id="Path_21476" data-name="Path 21476" d="M706.778,155.287c.005.123.005.252.005.38a9.236,9.236,0,0,1-14.222,7.783.079.079,0,0,1-.032-.091.09.09,0,0,1,.086-.054,5.974,5.974,0,0,0,.76.043,6.332,6.332,0,0,0,3.779-1.231,3.3,3.3,0,0,1-2.864-2.28.077.077,0,0,1,.016-.075.079.079,0,0,1,.075-.027,3.151,3.151,0,0,0,1.1.016,3.309,3.309,0,0,1-2.318-3.153v-.043a.074.074,0,0,1,.037-.064.064.064,0,0,1,.075,0,3.233,3.233,0,0,0,1.151.375,3.3,3.3,0,0,1-1.242-2.58,3.335,3.335,0,0,1,.444-1.659.074.074,0,0,1,.064-.037.1.1,0,0,1,.07.027,9.1,9.1,0,0,0,6.477,3.329,3.3,3.3,0,0,1,5.61-2.933,6.476,6.476,0,0,0,1.981-.765.081.081,0,0,1,.091.005.076.076,0,0,1,.027.086,3.27,3.27,0,0,1-1.161,1.627,6.543,6.543,0,0,0,1.488-.45.074.074,0,0,1,.091.021.08.08,0,0,1,.005.1A6.484,6.484,0,0,1,706.778,155.287Z" transform="translate(-692.525 -152)" fill="#fff"/>
</svg>
