<svg id="Group_449" data-name="Group 449" xmlns="http://www.w3.org/2000/svg" width="27" height="27" viewBox="0 0 27 27">
  <g id="Group_448" data-name="Group 448" transform="translate(6.039 8.016)">
    <path id="Path_21476" data-name="Path 21476" d="M706.567,155.238c.005.121.005.248.005.374a9.1,9.1,0,0,1-14.012,7.668.078.078,0,0,1-.032-.09.088.088,0,0,1,.084-.053,5.885,5.885,0,0,0,.749.042,6.239,6.239,0,0,0,3.723-1.213,3.249,3.249,0,0,1-2.821-2.246.076.076,0,0,1,.016-.074.078.078,0,0,1,.074-.026,3.1,3.1,0,0,0,1.081.016,3.26,3.26,0,0,1-2.283-3.106v-.042a.073.073,0,0,1,.037-.063.063.063,0,0,1,.074,0,3.185,3.185,0,0,0,1.134.369,3.251,3.251,0,0,1-1.223-2.542,3.286,3.286,0,0,1,.438-1.635.073.073,0,0,1,.063-.037.1.1,0,0,1,.069.026,8.964,8.964,0,0,0,6.381,3.28,3.249,3.249,0,0,1,5.527-2.89,6.38,6.38,0,0,0,1.951-.754.08.08,0,0,1,.09.005.075.075,0,0,1,.026.084,3.221,3.221,0,0,1-1.144,1.6,6.446,6.446,0,0,0,1.466-.443.073.073,0,0,1,.09.021.079.079,0,0,1,.005.095A6.39,6.39,0,0,1,706.567,155.238Z" transform="translate(-692.525 -152)" fill="#fff"/>
  </g>
  <path id="Path_21477" data-name="Path 21477" d="M591.5,0A13.5,13.5,0,1,0,605,13.5,13.5,13.5,0,0,0,591.5,0Zm0,24.891A11.391,11.391,0,1,1,602.891,13.5,11.39,11.39,0,0,1,591.5,24.891Z" transform="translate(-578)" fill="#fff"/>
</svg>
