<svg xmlns="http://www.w3.org/2000/svg" width="27" height="27" viewBox="0 0 27 27">
  <g id="Group_691" data-name="Group 691" transform="translate(-1172.822 -1597.342)">
    <g id="Group_683" data-name="Group 683" transform="translate(1172.822 1597.342)">
      <g id="Group_450" data-name="Group 450" transform="translate(0 0)">
        <path id="Path_21478" data-name="Path 21478" d="M1169.5,0A13.5,13.5,0,1,0,1183,13.5,13.5,13.5,0,0,0,1169.5,0Zm0,24.891A11.391,11.391,0,1,1,1180.891,13.5,11.39,11.39,0,0,1,1169.5,24.891Z" transform="translate(-1156)" fill="#fff"/>
      </g>
    </g>
    <g id="Group_682" data-name="Group 682" transform="translate(1179.623 1602.642)">
      <g id="Group_325" data-name="Group 325">
        <path id="Path_21418" data-name="Path 21418" d="M13.366,38.829A1.7,1.7,0,0,0,11.891,37.5a44.347,44.347,0,0,0-5.1-.2,44.347,44.347,0,0,0-5.1.2A1.739,1.739,0,0,0,.213,38.829,16.144,16.144,0,0,0,0,42.046a14.925,14.925,0,0,0,.231,3.217A1.7,1.7,0,0,0,1.706,46.6a44.344,44.344,0,0,0,5.1.2,44.344,44.344,0,0,0,5.1-.2,1.739,1.739,0,0,0,1.475-1.333,14.925,14.925,0,0,0,.231-3.217A14.931,14.931,0,0,0,13.366,38.829Zm-9.491.8H2.9v5.226H1.991V39.628H1.013v-.853H3.875Zm2.488,5.226H5.546v-.5a1.3,1.3,0,0,1-.942.551.511.511,0,0,1-.533-.338A2.084,2.084,0,0,1,4,43.894V40.322h.818v3.661c.018.124.089.2.2.2.16,0,.338-.124.515-.391V40.322h.818l.018,4.532ZM9.491,43.5a3.448,3.448,0,0,1-.089.906.66.66,0,0,1-.658.515,1.153,1.153,0,0,1-.853-.5v.444H7.074v-6.1h.818v1.991a1.15,1.15,0,0,1,.853-.5.66.66,0,0,1,.658.515,3.448,3.448,0,0,1,.089.906Zm3.093-.764H10.931v.8c0,.427.142.622.427.622.2,0,.32-.107.373-.338,0-.053.018-.231.018-.551h.835V43.4c0,.267-.018.444-.018.533a1.219,1.219,0,0,1-.2.5,1.133,1.133,0,0,1-1,.5,1.192,1.192,0,0,1-1-.462,1.744,1.744,0,0,1-.267-1.066V41.815a1.752,1.752,0,0,1,.249-1.066,1.265,1.265,0,0,1,1.955,0,1.752,1.752,0,0,1,.249,1.066l.018.924Z" transform="translate(0 -30.67)" fill="#fff"/>
        <path id="Path_21419" data-name="Path 21419" d="M62.009,58.2c-.267,0-.409.213-.409.622v.427h.818v-.427C62.418,58.4,62.275,58.2,62.009,58.2Z" transform="translate(-50.651 -47.856)" fill="#fff"/>
        <path id="Path_21420" data-name="Path 21420" d="M44.809,58.2a.626.626,0,0,0-.409.2v2.773a.553.553,0,0,0,.409.2c.231,0,.355-.2.355-.6V58.8C45.182,58.4,45.058,58.2,44.809,58.2Z" transform="translate(-36.508 -47.856)" fill="#fff"/>
        <path id="Path_21421" data-name="Path 21421" d="M46.34,13.457a1.276,1.276,0,0,0,.942-.569v.5h.835V8.8h-.835v3.5c-.178.267-.355.391-.533.391-.107,0-.178-.071-.2-.2a1.115,1.115,0,0,1-.018-.32V8.8H45.7v3.626a2.643,2.643,0,0,0,.071.675A.577.577,0,0,0,46.34,13.457Z" transform="translate(-37.577 -7.236)" fill="#fff"/>
        <path id="Path_21422" data-name="Path 21422" d="M11.373,3.661V6.15H12.3V3.661L13.4,0h-.924l-.622,2.417L11.178,0H10.2l.587,1.706A13.657,13.657,0,0,1,11.373,3.661Z" transform="translate(-8.387)" fill="#fff"/>
        <path id="Path_21423" data-name="Path 21423" d="M29.526,13.292a1.181,1.181,0,0,0,.978-.462,1.768,1.768,0,0,0,.267-1.084v-1.6A1.768,1.768,0,0,0,30.5,9.062a1.115,1.115,0,0,0-.978-.462,1.148,1.148,0,0,0-.96.462,1.768,1.768,0,0,0-.267,1.084v1.6a1.8,1.8,0,0,0,.267,1.084A1.1,1.1,0,0,0,29.526,13.292Zm-.409-3.324c0-.427.124-.64.391-.64s.391.213.391.64v1.937c0,.427-.124.64-.391.64s-.391-.213-.391-.64Z" transform="translate(-23.27 -7.071)" fill="#fff"/>
      </g>
    </g>
  </g>
</svg>
